<svg width="46" height="20" viewBox="0 0 46 20" fill="none" xmlns="http://www.w3.org/2000/svg">
<path d="M12.6753 19L11.4273 14.92H5.18734L3.93934 19H0.0273438L6.07534 1.792H10.5153L16.5873 19H12.6753ZM9.31534 7.888C9.23534 7.616 9.13134 7.272 9.00334 6.856C8.87534 6.44 8.74734 6.016 8.61934 5.584C8.49134 5.152 8.38734 4.776 8.30734 4.456C8.22734 4.776 8.11534 5.176 7.97134 5.656C7.84334 6.12 7.71534 6.568 7.58734 7C7.47534 7.416 7.38734 7.712 7.32334 7.888L6.09934 11.872H10.5633L9.31534 7.888ZM22.6217 19.24C21.1657 19.24 19.9737 18.672 19.0457 17.536C18.1337 16.384 17.6777 14.696 17.6777 12.472C17.6777 10.232 18.1417 8.536 19.0697 7.384C19.9977 6.232 21.2137 5.656 22.7177 5.656C23.6617 5.656 24.4377 5.84 25.0457 6.208C25.6537 6.576 26.1337 7.032 26.4857 7.576H26.6057C26.5577 7.32 26.5017 6.952 26.4377 6.472C26.3737 5.976 26.3417 5.472 26.3417 4.96V0.759999H29.9177V19H27.1817L26.4857 17.296H26.3417C25.9897 17.84 25.5177 18.304 24.9257 18.688C24.3337 19.056 23.5657 19.24 22.6217 19.24ZM23.8697 16.384C24.8617 16.384 25.5577 16.096 25.9577 15.52C26.3577 14.928 26.5657 14.048 26.5817 12.88V12.496C26.5817 11.216 26.3817 10.24 25.9817 9.568C25.5977 8.896 24.8777 8.56 23.8217 8.56C23.0377 8.56 22.4217 8.904 21.9737 9.592C21.5257 10.264 21.3017 11.24 21.3017 12.52C21.3017 13.8 21.5257 14.768 21.9737 15.424C22.4217 16.064 23.0537 16.384 23.8697 16.384ZM37.8092 19.24C36.3532 19.24 35.1612 18.672 34.2332 17.536C33.3212 16.384 32.8652 14.696 32.8652 12.472C32.8652 10.232 33.3292 8.536 34.2572 7.384C35.1852 6.232 36.4012 5.656 37.9052 5.656C38.8492 5.656 39.6252 5.84 40.2332 6.208C40.8412 6.576 41.3212 7.032 41.6732 7.576H41.7932C41.7452 7.32 41.6892 6.952 41.6252 6.472C41.5612 5.976 41.5292 5.472 41.5292 4.96V0.759999H45.1052V19H42.3692L41.6732 17.296H41.5292C41.1772 17.84 40.7052 18.304 40.1132 18.688C39.5212 19.056 38.7532 19.24 37.8092 19.24ZM39.0572 16.384C40.0492 16.384 40.7452 16.096 41.1452 15.52C41.5452 14.928 41.7532 14.048 41.7692 12.88V12.496C41.7692 11.216 41.5692 10.24 41.1692 9.568C40.7852 8.896 40.0652 8.56 39.0092 8.56C38.2252 8.56 37.6092 8.904 37.1612 9.592C36.7132 10.264 36.4892 11.24 36.4892 12.52C36.4892 13.8 36.7132 14.768 37.1612 15.424C37.6092 16.064 38.2412 16.384 39.0572 16.384Z" fill="black"/>
</svg>
