<svg width="42" height="41" viewBox="0 0 42 41" fill="none" xmlns="http://www.w3.org/2000/svg">
<path d="M15.1281 32.4637L13.0366 34.5226C12.1605 35.3768 10.9804 35.8556 9.75101 35.8556C8.52163 35.8556 7.34155 35.3768 6.4654 34.5226C6.03821 34.1036 5.69911 33.6048 5.46769 33.0552C5.23626 32.5055 5.1171 31.9159 5.1171 31.3204C5.1171 30.7249 5.23626 30.1353 5.46769 29.5856C5.69911 29.036 6.03821 28.5372 6.4654 28.1182L14.1598 20.5603C15.7529 18.9925 18.7532 16.6855 20.9402 18.8339C21.1755 19.0825 21.459 19.2816 21.7737 19.4193C22.0885 19.5569 22.4279 19.6304 22.772 19.6352C23.116 19.6401 23.4574 19.5763 23.776 19.4475C24.0946 19.3188 24.3837 19.1278 24.6261 18.886C24.8685 18.6441 25.0592 18.3564 25.1869 18.0399C25.3146 17.7235 25.3766 17.3848 25.3692 17.044C25.3619 16.7033 25.2853 16.3676 25.1441 16.0568C25.0028 15.746 24.7999 15.4666 24.5472 15.2353C20.8343 11.583 15.3398 12.2582 10.5553 16.9617L2.8609 24.5221C1.95176 25.41 1.23047 26.4686 0.739247 27.6359C0.248021 28.8031 -0.00328374 30.0558 3.23955e-05 31.3204C-0.00313957 32.585 0.248231 33.8376 0.739448 35.0049C1.23067 36.1721 1.95187 37.2307 2.8609 38.1187C4.69335 39.9191 7.1713 40.9271 9.7523 40.9218C12.2491 40.9218 14.7459 39.9883 16.6437 38.1187L18.7377 36.0597C18.9765 35.8258 19.1663 35.5475 19.2963 35.2407C19.4262 34.9339 19.4937 34.6047 19.4949 34.272C19.4961 33.9394 19.431 33.6097 19.3033 33.302C19.1755 32.9943 18.9877 32.7146 18.7506 32.479C18.2713 32.003 17.6213 31.7341 16.9425 31.7312C16.2638 31.7284 15.6115 31.9917 15.1281 32.4637V32.4637ZM38.4488 3.09154C34.4544 -0.83191 28.8721 -1.0442 25.1798 2.58768L22.5746 5.15045C22.0932 5.62393 21.8214 6.26745 21.8189 6.93944C21.8165 7.61144 22.0837 8.25686 22.5617 8.73373C23.0397 9.2106 23.6893 9.47985 24.3677 9.48224C25.0461 9.48464 25.6977 9.21999 26.1791 8.74652L28.7869 6.1863C30.6976 4.30387 33.2047 5.08395 34.8443 6.69016C35.7119 7.54698 36.1921 8.68258 36.1921 9.89235C36.1921 11.1021 35.7119 12.2377 34.8443 13.092L26.6335 21.1588C22.8793 24.8444 21.1183 23.118 20.367 22.3788C20.1286 22.1444 19.8459 21.9588 19.5351 21.8325C19.2243 21.7063 18.8915 21.6419 18.5556 21.6431C18.2197 21.6443 17.8873 21.711 17.5774 21.8394C17.2675 21.9679 16.9862 22.1555 16.7496 22.3916C16.5129 22.6277 16.3255 22.9077 16.198 23.2156C16.0706 23.5235 16.0056 23.8532 16.0068 24.1859C16.008 24.5186 16.0754 24.8479 16.205 25.1548C16.3347 25.4618 16.5241 25.7405 16.7625 25.9749C18.4873 27.6681 20.4547 28.507 22.5152 28.507C25.0378 28.507 27.705 27.2486 30.2432 24.7549L38.454 16.6906C39.3611 15.8014 40.081 14.7425 40.5716 13.5755C41.0623 12.4085 41.314 11.1565 41.3123 9.89235C41.3146 8.62724 41.0626 7.37433 40.5709 6.2067C40.0793 5.03908 39.3579 3.9801 38.4488 3.09154V3.09154Z" fill="black"/>
</svg>
