<svg width="72" height="73" viewBox="0 0 72 73" fill="none" xmlns="http://www.w3.org/2000/svg">
<ellipse cx="35.7866" cy="36.7689" rx="35.2666" ry="35.8066" fill="black"/>
<path d="M30.7623 48.7717L28.6709 50.8306C27.7947 51.6848 26.6147 52.1636 25.3853 52.1636C24.1559 52.1636 22.9758 51.6848 22.0997 50.8306C21.6725 50.4115 21.3334 49.9128 21.102 49.3632C20.8705 48.8135 20.7514 48.2239 20.7514 47.6284C20.7514 47.0329 20.8705 46.4432 21.102 45.8936C21.3334 45.344 21.6725 44.8452 22.0997 44.4262L29.7941 36.8683C31.3872 35.3005 34.3875 32.9935 36.5744 35.1419C36.8098 35.3905 37.0933 35.5896 37.408 35.7272C37.7227 35.8649 38.0622 35.9384 38.4062 35.9432C38.7502 35.9481 39.0917 35.8842 39.4103 35.7555C39.7288 35.6268 40.0179 35.4358 40.2603 35.194C40.5028 34.9521 40.6935 34.6644 40.8212 34.3479C40.9489 34.0315 41.0109 33.6928 41.0035 33.352C40.9962 33.0113 40.9196 32.6755 40.7784 32.3648C40.6371 32.054 40.4341 31.7746 40.1815 31.5433C36.4686 27.8909 30.9741 28.5662 26.1896 33.2697L18.4952 40.8301C17.586 41.718 16.8647 42.7765 16.3735 43.9438C15.8823 45.1111 15.631 46.3637 15.6343 47.6284C15.6311 48.893 15.8825 50.1456 16.3737 51.3129C16.8649 52.4801 17.5861 53.5387 18.4952 54.4266C20.3276 56.2271 22.8056 57.2351 25.3866 57.2298C27.8834 57.2298 30.3802 56.2963 32.278 54.4266L34.372 52.3677C34.6108 52.1338 34.8006 51.8554 34.9305 51.5487C35.0605 51.2419 35.128 50.9127 35.1292 50.58C35.1304 50.2473 35.0653 49.9177 34.9375 49.61C34.8098 49.3023 34.622 49.0226 34.3849 48.787C33.9056 48.3109 33.2556 48.0421 32.5768 48.0392C31.8981 48.0364 31.2457 48.2997 30.7623 48.7717ZM54.0831 19.3995C50.0887 15.4761 44.5064 15.2638 40.8141 18.8957L38.2089 21.4584C37.7274 21.9319 37.4556 22.5754 37.4532 23.2474C37.4508 23.9194 37.718 24.5648 38.1959 25.0417C38.6739 25.5186 39.3236 25.7878 40.002 25.7902C40.6804 25.7926 41.3319 25.528 41.8133 25.0545L44.4212 22.4943C46.3319 20.6118 48.839 21.3919 50.4786 22.9981C51.3461 23.855 51.8264 24.9906 51.8264 26.2003C51.8264 27.4101 51.3461 28.5457 50.4786 29.4L42.2678 37.4668C38.5135 41.1524 36.7526 39.426 36.0012 38.6868C35.7629 38.4524 35.4802 38.2667 35.1694 38.1405C34.8586 38.0143 34.5258 37.9499 34.1899 37.9511C33.854 37.9523 33.5216 38.019 33.2117 38.1474C32.9018 38.2759 32.6205 38.4635 32.3838 38.6996C32.1472 38.9357 31.9598 39.2157 31.8323 39.5236C31.7049 39.8314 31.6399 40.1612 31.6411 40.4939C31.6423 40.8266 31.7096 41.1559 31.8393 41.4628C31.969 41.7698 32.1584 42.0484 32.3967 42.2829C34.1215 43.9761 36.089 44.815 38.1495 44.815C40.6721 44.815 43.3393 43.5566 45.8774 41.0629L54.0882 32.9986C54.9954 32.1094 55.7152 31.0505 56.2059 29.8835C56.6966 28.7165 56.9483 27.4645 56.9465 26.2003C56.9488 24.9352 56.6968 23.6823 56.2052 22.5147C55.7136 21.3471 54.9922 20.2881 54.0831 19.3995Z" fill="white"/>
</svg>
