<svg width="69" height="71" viewBox="0 0 69 71" fill="none" xmlns="http://www.w3.org/2000/svg">
<path d="M34.44 70.7925C29.7763 70.7925 25.3143 69.8592 21.0541 67.9926C16.794 66.126 13.128 63.6141 10.0562 60.457C6.98441 57.3 4.54043 53.5322 2.72426 49.1538C0.908086 44.7753 0 40.1895 0 35.3962C0 30.603 0.908086 26.0172 2.72426 21.6387C4.54043 17.2603 6.98441 13.4925 10.0562 10.3354C13.128 7.17834 16.794 4.6665 21.0541 2.7999C25.3143 0.933299 29.7763 0 34.44 0C39.1038 0 43.5657 0.933299 47.8259 2.7999C52.086 4.6665 55.752 7.17834 58.8238 10.3354C61.8956 13.4925 64.3396 17.2603 66.1557 21.6387C67.9719 26.0172 68.88 30.603 68.88 35.3962C68.88 40.1895 67.9719 44.7753 66.1557 49.1538C64.3396 53.5322 61.8956 57.3 58.8238 60.457C55.752 63.6141 52.086 66.126 47.8259 67.9926C43.5657 69.8592 39.1038 70.7925 34.44 70.7925ZM51.66 22.1226C51.66 20.9243 51.2452 19.8873 50.4156 19.0116C49.586 18.136 48.5658 17.6981 47.355 17.6981H21.525C20.3591 17.6981 19.3501 18.136 18.498 19.0116C17.646 19.8873 17.22 20.9243 17.22 22.1226V26.5472H24.8883C27.4892 23.5975 30.6731 22.1226 34.44 22.1226C38.2069 22.1226 41.3908 23.5975 43.9917 26.5472H51.66V22.1226ZM25.83 35.3962C25.83 37.8389 26.6708 39.9245 28.3525 41.6528C30.0341 43.3811 32.0633 44.2453 34.44 44.2453C36.8167 44.2453 38.8459 43.3811 40.5275 41.6528C42.2092 39.9245 43.05 37.8389 43.05 35.3962C43.05 32.9535 42.2092 30.868 40.5275 29.1397C38.8459 27.4113 36.8167 26.5472 34.44 26.5472C32.0633 26.5472 30.0341 27.4113 28.3525 29.1397C26.6708 30.868 25.83 32.9535 25.83 35.3962ZM51.66 30.9717H46.5478C47.0859 32.4926 47.355 33.9675 47.355 35.3962C47.355 39.0833 46.0994 42.2174 43.5881 44.7984C41.0769 47.3793 38.0275 48.6698 34.44 48.6698C30.8525 48.6698 27.8031 47.3793 25.2919 44.7984C22.7806 42.2174 21.525 39.0833 21.525 35.3962C21.525 33.9675 21.7941 32.4926 22.3322 30.9717H17.22V48.6698C17.22 49.9142 17.6348 50.9627 18.4644 51.8154C19.294 52.668 20.3142 53.0943 21.525 53.0943H47.355C48.5658 53.0943 49.586 52.668 50.4156 51.8154C51.2452 50.9627 51.66 49.9142 51.66 48.6698V30.9717Z" fill="black"/>
</svg>
