<svg width="52" height="52" viewBox="0 0 52 52" fill="none" xmlns="http://www.w3.org/2000/svg">
<path d="M26 35.75C28.5859 35.75 31.0658 34.7228 32.8943 32.8943C34.7228 31.0658 35.75 28.5859 35.75 26C35.75 23.4141 34.7228 20.9342 32.8943 19.1057C31.0658 17.2772 28.5859 16.25 26 16.25C23.4141 16.25 20.9342 17.2772 19.1057 19.1057C17.2772 20.9342 16.25 23.4141 16.25 26C16.25 28.5859 17.2772 31.0658 19.1057 32.8943C20.9342 34.7228 23.4141 35.75 26 35.75V35.75ZM28.4375 2.4375C28.4375 1.79103 28.1807 1.17105 27.7236 0.713927C27.2665 0.256807 26.6465 0 26 0C25.3535 0 24.7335 0.256807 24.2764 0.713927C23.8193 1.17105 23.5625 1.79103 23.5625 2.4375V6.6495C19.2661 7.1918 15.2723 9.1481 12.2102 12.2102C9.1481 15.2723 7.1918 19.2661 6.6495 23.5625H2.4375C1.79103 23.5625 1.17105 23.8193 0.713927 24.2764C0.256807 24.7335 0 25.3535 0 26C0 26.6465 0.256807 27.2665 0.713927 27.7236C1.17105 28.1807 1.79103 28.4375 2.4375 28.4375H6.6495C7.1918 32.7339 9.1481 36.7277 12.2102 39.7898C15.2723 42.8519 19.2661 44.8082 23.5625 45.3505V49.5625C23.5625 50.209 23.8193 50.829 24.2764 51.2861C24.7335 51.7432 25.3535 52 26 52C26.6465 52 27.2665 51.7432 27.7236 51.2861C28.1807 50.829 28.4375 50.209 28.4375 49.5625V45.3505C32.7339 44.8082 36.7277 42.8519 39.7898 39.7898C42.8519 36.7277 44.8082 32.7339 45.3505 28.4375H49.5625C50.209 28.4375 50.829 28.1807 51.2861 27.7236C51.7432 27.2665 52 26.6465 52 26C52 25.3535 51.7432 24.7335 51.2861 24.2764C50.829 23.8193 50.209 23.5625 49.5625 23.5625H45.3505C44.8082 19.2661 42.8519 15.2723 39.7898 12.2102C36.7277 9.1481 32.7339 7.1918 28.4375 6.6495V2.4375ZM26 40.625C24.0794 40.625 22.1776 40.2467 20.4033 39.5117C18.6289 38.7768 17.0166 37.6995 15.6586 36.3414C14.3005 34.9834 13.2232 33.3711 12.4883 31.5967C11.7533 29.8224 11.375 27.9206 11.375 26C11.375 24.0794 11.7533 22.1776 12.4883 20.4033C13.2232 18.6289 14.3005 17.0166 15.6586 15.6586C17.0166 14.3005 18.6289 13.2232 20.4033 12.4883C22.1776 11.7533 24.0794 11.375 26 11.375C29.8788 11.375 33.5987 12.9158 36.3414 15.6586C39.0842 18.4013 40.625 22.1212 40.625 26C40.625 29.8788 39.0842 33.5987 36.3414 36.3414C33.5987 39.0842 29.8788 40.625 26 40.625V40.625Z" fill="black"/>
</svg>
