<svg width="38" height="32" viewBox="0 0 38 32" fill="none" xmlns="http://www.w3.org/2000/svg">
<path fill-rule="evenodd" clip-rule="evenodd" d="M37.5654 0.225653C37.7013 0.319527 37.8109 0.437657 37.886 0.571513C37.9612 0.705368 38.0001 0.851609 38 0.999676V29.0005C37.9998 29.2316 37.9046 29.4555 37.7306 29.6342C37.5565 29.8129 37.3144 29.9352 37.0452 29.9805L25.1702 31.9806C25.0166 32.0064 24.8584 32.0064 24.7048 31.9806L13.0625 30.0205L1.42025 31.9806C1.24804 32.0096 1.07033 32.0061 0.899936 31.9702C0.729543 31.9344 0.570703 31.8672 0.434861 31.7735C0.299019 31.6798 0.189557 31.5618 0.11436 31.4282C0.0391642 31.2945 0.00010605 31.1485 0 31.0006L0 2.99974C0.000165732 2.76864 0.0953708 2.54472 0.269428 2.36605C0.443485 2.18739 0.685651 2.065 0.95475 2.01971L12.8298 0.0196468C12.9834 -0.00621545 13.1416 -0.00621545 13.2952 0.0196468L24.9375 1.97971L36.5798 0.0196468C36.7519 -0.00952244 36.9296 -0.00617531 37.1 0.0294471C37.2705 0.0650695 37.4294 0.13208 37.5654 0.225653ZM23.75 3.81976L14.25 2.21971V28.1805L23.75 29.7805V3.81976ZM26.125 29.7805L35.625 28.1805V2.21971L26.125 3.81976V29.7805ZM11.875 28.1805V2.21971L2.375 3.81976V29.7805L11.875 28.1805Z" fill="black"/>
</svg>
