<svg width="70" height="72" viewBox="0 0 70 72" fill="none" xmlns="http://www.w3.org/2000/svg">
<ellipse cx="34.848" cy="36.3699" rx="34.44" ry="35.3962" fill="black"/>
<path d="M34.356 11.2334C21.6054 11.2334 11.232 19.5815 11.232 29.8417C11.232 36.6058 15.6209 42.6721 22.794 45.9704V57.7542L35.1422 48.4384C47.5297 48.1058 57.48 39.8902 57.48 29.8417C57.48 19.5815 47.1066 11.2334 34.356 11.2334ZM34.356 43.7979H33.586L27.4188 48.45V42.828L25.9365 42.2534C19.7185 39.846 15.8568 35.0892 15.8568 29.8417C15.8568 22.1448 24.156 15.8855 34.356 15.8855C44.556 15.8855 52.8552 22.1448 52.8552 29.8417C52.8552 37.5386 44.556 43.7979 34.356 43.7979Z" fill="white"/>
</svg>
