<svg width="35" height="34" viewBox="0 0 35 34" fill="none" xmlns="http://www.w3.org/2000/svg">
<path d="M2.48943 13.4462C0.996547 14.909 0.11261 16.8651 0.010041 18.9327C-0.0925281 21.0004 0.593627 23.0314 1.93467 24.6296C3.27571 26.2278 5.17545 27.2786 7.26334 27.5769C9.35123 27.8752 11.4775 27.3998 13.2275 26.2433L20.5596 33.4388C20.7963 33.6763 21.1165 33.8165 21.4548 33.8307C21.7931 33.8449 22.1243 33.7321 22.3809 33.5152C22.6374 33.2984 22.8002 32.9938 22.836 32.6634C22.8718 32.333 22.7779 32.0016 22.5735 31.7367L22.4443 31.5896L15.1776 24.46C16.5002 22.7884 17.1246 20.6854 16.9239 18.5783C16.7232 16.4713 15.7124 14.5183 14.097 13.116C12.4816 11.7138 10.3827 10.9675 8.22667 11.0288C6.07068 11.0901 4.01935 11.9545 2.48943 13.4462ZM25.2524 24.509C24.8648 26.6844 24.3083 28.6604 23.6123 30.3473L23.6623 30.3946L23.8776 30.6312C24.2566 31.1299 24.4703 31.686 24.5288 32.2404C28.051 30.6339 30.9191 27.9104 32.6707 24.509H25.2524ZM17.6653 24.5073L21.6001 28.373C21.9481 27.3588 22.2565 26.2297 22.5132 25.006L22.6114 24.509L17.667 24.5073H17.6653ZM12.6073 15.2953C13.1613 15.8229 13.6029 16.4533 13.9063 17.1498C14.2097 17.8464 14.3689 18.5952 14.3746 19.3527C14.3804 20.1101 14.2325 20.8612 13.9397 21.5621C13.6468 22.263 13.2148 22.8997 12.6689 23.4353C12.1229 23.9709 11.4738 24.3946 10.7594 24.6818C10.0449 24.9689 9.27942 25.1138 8.50738 25.1081C7.73535 25.1023 6.97219 24.9459 6.26231 24.6481C5.55243 24.3502 4.91001 23.9169 4.37242 23.3732C3.28796 22.3002 2.6809 20.8494 2.68412 19.3384C2.68734 17.8273 3.30058 16.379 4.38961 15.3105C5.47865 14.242 6.95477 13.6403 8.49489 13.6372C10.035 13.634 11.5137 14.2296 12.6073 15.2936V15.2953ZM23.1782 13.5205H16.8039C17.6815 14.7299 18.2745 16.1153 18.5403 17.5768C18.806 19.0383 18.7378 20.5394 18.3406 21.9719L23.0094 21.9736C23.3102 19.4427 23.3863 16.8909 23.2368 14.3471L23.1782 13.5205ZM25.7744 13.5205C25.9549 16.0085 25.9359 18.5065 25.7175 20.9916L25.6194 21.9719H33.7198C34.5925 19.2367 34.7454 16.3293 34.1643 13.5205H25.7744ZM22.1652 0.686253C23.6812 2.96813 24.8114 6.31319 25.4092 10.2431L25.516 10.9868H33.4235C32.5319 8.65221 31.1264 6.53928 29.3073 4.79858C27.4882 3.05787 25.3001 1.73224 22.8991 0.916131L22.3754 0.747103L22.1652 0.686253ZM17.2794 0C15.0794 0 12.8674 4.02624 11.8389 9.86954C12.6383 10.14 13.4101 10.5118 14.1319 10.9817L22.8974 10.9834C21.9671 4.54516 19.6155 0 17.2794 0ZM12.3919 0.684563C9.83159 1.43046 7.48242 2.74868 5.52897 4.53565C3.57552 6.32263 2.071 8.52969 1.13361 10.9834H2.84777C4.75007 9.74549 7.02061 9.16937 9.2961 9.34724C9.85083 6.2067 10.7536 3.48197 11.9268 1.43674L12.2059 0.97191L12.3919 0.684563Z" fill="black"/>
</svg>
