<svg width="25" height="25" viewBox="0 0 25 25" fill="none" xmlns="http://www.w3.org/2000/svg">
<path d="M7.5 10V7.5H3.8625C5.5875 4.5125 8.8125 2.5 12.5 2.5C17.15 2.5 21.0625 5.7 22.175 10H24.75C23.5875 4.3 18.55 0 12.5 0C8.4125 0 4.775 1.975 2.5 5.0125V2.5H0V10H7.5ZM17.5 15V17.5H21.1375C19.4125 20.4875 16.1875 22.5 12.5 22.5C7.85 22.5 3.9375 19.3 2.825 15H0.25C1.4125 20.7 6.45 25 12.5 25C16.5875 25 20.225 23.025 22.5 19.9875V22.5H25V15H17.5Z" fill="#F1C232"/>
<path d="M10 13C10 14.66 11.34 16 13 16C14.66 16 16 14.66 16 13C16 11.34 14.66 10 13 10C11.34 10 10 11.34 10 13Z" fill="#F1C232"/>
</svg>
