<svg width="89" height="80" viewBox="0 0 89 80" fill="none" xmlns="http://www.w3.org/2000/svg">
<path d="M85.2917 63.3333C85.2917 65.1014 84.5103 66.7971 83.1194 68.0474C81.7285 69.2976 79.8421 70 77.875 70H11.125C9.15802 70 7.27156 69.2976 5.88067 68.0474C4.48977 66.7971 3.70837 65.1014 3.70837 63.3333V26.6667C3.70837 24.8986 4.48977 23.2029 5.88067 21.9526C7.27156 20.7024 9.15802 20 11.125 20H25.9584L33.375 10H55.625L63.0417 20H77.875C79.8421 20 81.7285 20.7024 83.1194 21.9526C84.5103 23.2029 85.2917 24.8986 85.2917 26.6667V63.3333Z" stroke="#C4C4C4" stroke-width="2" stroke-linecap="round" stroke-linejoin="round"/>
<path d="M44.5001 56.6667C52.6923 56.6667 59.3334 50.6971 59.3334 43.3333C59.3334 35.9695 52.6923 30 44.5001 30C36.3079 30 29.6667 35.9695 29.6667 43.3333C29.6667 50.6971 36.3079 56.6667 44.5001 56.6667Z" stroke="#C4C4C4" stroke-width="2" stroke-linecap="round" stroke-linejoin="round"/>
</svg>
