<svg width="33" height="9" viewBox="0 0 33 9" fill="none" xmlns="http://www.w3.org/2000/svg">
<path d="M4.125 0C1.85625 0 0 2.025 0 4.5C0 6.975 1.85625 9 4.125 9C6.39375 9 8.25 6.975 8.25 4.5C8.25 2.025 6.39375 0 4.125 0ZM28.875 0C26.6062 0 24.75 2.025 24.75 4.5C24.75 6.975 26.6062 9 28.875 9C31.1438 9 33 6.975 33 4.5C33 2.025 31.1438 0 28.875 0ZM16.5 0C14.2312 0 12.375 2.025 12.375 4.5C12.375 6.975 14.2312 9 16.5 9C18.7688 9 20.625 6.975 20.625 4.5C20.625 2.025 18.7688 0 16.5 0Z" fill="#878787"/>
</svg>
