<svg width="90" height="318" viewBox="0 0 90 318" fill="none" xmlns="http://www.w3.org/2000/svg">
<path d="M22.0305 0L22.0305 291" stroke="#F2C94C" stroke-width="4"/>
<path d="M5.21916 304.672C5.21916 303.829 5.33116 303.077 5.55516 302.416C5.78982 301.744 6.09916 301.179 6.48316 300.72C6.87782 300.261 7.34182 299.915 7.87516 299.68C8.40849 299.445 8.98449 299.328 9.60316 299.328C10.2538 299.328 10.8458 299.461 11.3792 299.728C11.9125 299.995 12.3658 300.368 12.7392 300.848C13.1232 301.317 13.4165 301.888 13.6192 302.56C13.8325 303.221 13.9338 303.957 13.9232 304.768C13.9125 305.611 13.7952 306.363 13.5712 307.024C13.3472 307.685 13.0378 308.251 12.6432 308.72C12.2485 309.179 11.7845 309.531 11.2512 309.776C10.7285 310.011 10.1578 310.128 9.53916 310.128C8.94182 310.128 8.38182 310.005 7.85916 309.76C7.33649 309.515 6.87782 309.163 6.48316 308.704C6.08849 308.235 5.77916 307.664 5.55516 306.992C5.33116 306.32 5.21916 305.547 5.21916 304.672ZM6.70716 304.72C6.69649 305.264 6.76582 305.776 6.91516 306.256C7.06449 306.736 7.26716 307.157 7.52316 307.52C7.77916 307.883 8.07782 308.171 8.41916 308.384C8.77116 308.597 9.14449 308.704 9.53916 308.704C9.93382 308.704 10.3072 308.603 10.6592 308.4C11.0112 308.197 11.3152 307.915 11.5712 307.552C11.8378 307.189 12.0458 306.768 12.1952 306.288C12.3552 305.797 12.4352 305.28 12.4352 304.736C12.4352 304.341 12.3872 303.915 12.2912 303.456C12.2058 302.987 12.0512 302.555 11.8272 302.16C11.6032 301.755 11.3098 301.419 10.9472 301.152C10.5845 300.885 10.1365 300.752 9.60316 300.752C9.04849 300.752 8.58449 300.891 8.21116 301.168C7.84849 301.445 7.55516 301.792 7.33116 302.208C7.10716 302.613 6.94716 303.045 6.85116 303.504C6.75516 303.963 6.70716 304.368 6.70716 304.72ZM15.5503 304.704C15.5503 304.448 15.6409 304.235 15.8223 304.064C16.0143 303.883 16.2223 303.792 16.4463 303.792C16.6596 303.792 16.8569 303.883 17.0383 304.064C17.2303 304.235 17.3263 304.448 17.3263 304.704C17.3263 304.981 17.2303 305.205 17.0383 305.376C16.8569 305.536 16.6596 305.616 16.4463 305.616C16.2223 305.616 16.0143 305.536 15.8223 305.376C15.6409 305.205 15.5503 304.981 15.5503 304.704ZM15.5503 309.104C15.5503 308.848 15.6409 308.635 15.8223 308.464C16.0143 308.283 16.2223 308.192 16.4463 308.192C16.6596 308.192 16.8569 308.283 17.0383 308.464C17.2303 308.635 17.3263 308.848 17.3263 309.104C17.3263 309.381 17.2303 309.6 17.0383 309.76C16.8569 309.92 16.6596 310 16.4463 310C16.2223 310 16.0143 309.92 15.8223 309.76C15.6409 309.6 15.5503 309.381 15.5503 309.104ZM18.9535 304.672C18.9535 303.829 19.0655 303.077 19.2895 302.416C19.5242 301.744 19.8335 301.179 20.2175 300.72C20.6122 300.261 21.0762 299.915 21.6095 299.68C22.1429 299.445 22.7189 299.328 23.3375 299.328C23.9882 299.328 24.5802 299.461 25.1135 299.728C25.6469 299.995 26.1002 300.368 26.4735 300.848C26.8575 301.317 27.1509 301.888 27.3535 302.56C27.5669 303.221 27.6682 303.957 27.6575 304.768C27.6469 305.611 27.5295 306.363 27.3055 307.024C27.0815 307.685 26.7722 308.251 26.3775 308.72C25.9829 309.179 25.5189 309.531 24.9855 309.776C24.4629 310.011 23.8922 310.128 23.2735 310.128C22.6762 310.128 22.1162 310.005 21.5935 309.76C21.0709 309.515 20.6122 309.163 20.2175 308.704C19.8229 308.235 19.5135 307.664 19.2895 306.992C19.0655 306.32 18.9535 305.547 18.9535 304.672ZM20.4415 304.72C20.4309 305.264 20.5002 305.776 20.6495 306.256C20.7989 306.736 21.0015 307.157 21.2575 307.52C21.5135 307.883 21.8122 308.171 22.1535 308.384C22.5055 308.597 22.8789 308.704 23.2735 308.704C23.6682 308.704 24.0415 308.603 24.3935 308.4C24.7455 308.197 25.0495 307.915 25.3055 307.552C25.5722 307.189 25.7802 306.768 25.9295 306.288C26.0895 305.797 26.1695 305.28 26.1695 304.736C26.1695 304.341 26.1215 303.915 26.0255 303.456C25.9402 302.987 25.7855 302.555 25.5615 302.16C25.3375 301.755 25.0442 301.419 24.6815 301.152C24.3189 300.885 23.8709 300.752 23.3375 300.752C22.7829 300.752 22.3189 300.891 21.9455 301.168C21.5829 301.445 21.2895 301.792 21.0655 302.208C20.8415 302.613 20.6815 303.045 20.5855 303.504C20.4895 303.963 20.4415 304.368 20.4415 304.72ZM29.1567 304.672C29.1567 303.829 29.2687 303.077 29.4927 302.416C29.7273 301.744 30.0367 301.179 30.4207 300.72C30.8153 300.261 31.2793 299.915 31.8127 299.68C32.346 299.445 32.922 299.328 33.5407 299.328C34.1913 299.328 34.7833 299.461 35.3167 299.728C35.85 299.995 36.3033 300.368 36.6767 300.848C37.0607 301.317 37.354 301.888 37.5567 302.56C37.77 303.221 37.8713 303.957 37.8607 304.768C37.85 305.611 37.7327 306.363 37.5087 307.024C37.2847 307.685 36.9753 308.251 36.5807 308.72C36.186 309.179 35.722 309.531 35.1887 309.776C34.666 310.011 34.0953 310.128 33.4767 310.128C32.8793 310.128 32.3193 310.005 31.7967 309.76C31.274 309.515 30.8153 309.163 30.4207 308.704C30.026 308.235 29.7167 307.664 29.4927 306.992C29.2687 306.32 29.1567 305.547 29.1567 304.672ZM30.6447 304.72C30.634 305.264 30.7033 305.776 30.8527 306.256C31.002 306.736 31.2047 307.157 31.4607 307.52C31.7167 307.883 32.0153 308.171 32.3567 308.384C32.7087 308.597 33.082 308.704 33.4767 308.704C33.8713 308.704 34.2447 308.603 34.5967 308.4C34.9487 308.197 35.2527 307.915 35.5087 307.552C35.7753 307.189 35.9833 306.768 36.1327 306.288C36.2927 305.797 36.3727 305.28 36.3727 304.736C36.3727 304.341 36.3247 303.915 36.2287 303.456C36.1433 302.987 35.9887 302.555 35.7647 302.16C35.5407 301.755 35.2473 301.419 34.8847 301.152C34.522 300.885 34.074 300.752 33.5407 300.752C32.986 300.752 32.522 300.891 32.1487 301.168C31.786 301.445 31.4927 301.792 31.2687 302.208C31.0447 302.613 30.8847 303.045 30.7887 303.504C30.6927 303.963 30.6447 304.368 30.6447 304.72Z" fill="black"/>
</svg>
