<svg width="70" height="72" viewBox="0 0 70 72" fill="none" xmlns="http://www.w3.org/2000/svg">
<path d="M35.088 0.973633C16.0691 0.973633 0.647949 16.8229 0.647949 36.3699C0.647949 55.9168 16.0691 71.7661 35.088 71.7661C54.1068 71.7661 69.528 55.9168 69.528 36.3699C69.528 16.8229 54.1068 0.973633 35.088 0.973633ZM51.6392 27.6551C51.6622 28.0265 51.6622 28.4136 51.6622 28.7929C51.6622 40.3914 43.0676 53.7519 27.362 53.7519C22.5189 53.7519 18.0294 52.3061 14.2471 49.8173C14.939 49.8963 15.6001 49.9279 16.3074 49.9279C20.3049 49.9279 23.9795 48.5373 26.9085 46.1828C23.157 46.1038 20.0051 43.5755 18.9288 40.0991C20.2434 40.2966 21.4273 40.2966 22.7803 39.9411C20.8486 39.5377 19.1124 38.4595 17.8665 36.8896C16.6207 35.3197 15.9421 33.3549 15.9461 31.3291V31.2184C17.0761 31.8742 18.4061 32.2772 19.7975 32.3325C18.6278 31.5313 17.6685 30.4458 17.0047 29.1723C16.3409 27.8989 15.9932 26.4767 15.9922 25.032C15.9922 23.3965 16.4073 21.9032 17.153 20.6075C19.2971 23.3202 21.9726 25.5388 25.0055 27.1192C28.0385 28.6995 31.3611 29.6063 34.7574 29.7805C33.5505 23.8153 37.8862 18.9878 43.0983 18.9878C45.5583 18.9878 47.7723 20.0465 49.3329 21.7531C51.2625 21.3818 53.1075 20.6391 54.7526 19.6436C54.1145 21.6741 52.7769 23.3886 51.0011 24.471C52.7231 24.2814 54.3836 23.7916 55.9211 23.1042C54.7603 24.8582 53.3074 26.4147 51.6392 27.6551Z" fill="black"/>
</svg>
