<svg width="109" height="109" viewBox="0 0 109 109" fill="none" xmlns="http://www.w3.org/2000/svg">
<g clip-path="url(#clip0)">
<path d="M34.2982 29.8577C20.7442 40.9207 19.0321 61.0989 30.5171 74.4186C41.537 87.1887 60.8295 88.9275 73.8328 78.3226C87.3909 67.2599 89.1008 47.0837 77.6134 33.7658C66.5939 20.9916 47.3014 19.2528 34.2982 29.8577ZM57.1447 35.6575L65.7471 65.0431C66.2101 66.7093 64.0429 67.8467 62.9259 66.5155L54.3063 56.243C54.2038 56.1208 54.0572 56.0442 53.8987 56.0299C53.7403 56.0156 53.583 56.0649 53.4615 56.1669L43.245 64.7395C41.9253 65.8469 39.9931 64.3538 40.7241 62.7984L54.1373 35.3865C54.2767 35.0889 54.5041 34.8418 54.7889 34.6784C55.0737 34.515 55.4022 34.4432 55.73 34.4728C56.0578 34.5023 56.3692 34.6318 56.6222 34.8436C56.8752 35.0555 57.0575 35.3395 57.1447 35.6575V35.6575Z" fill="#2BB2FF"/>
</g>
<defs>
<clipPath id="clip0">
<rect width="76.5686" height="76.9706" fill="white" transform="translate(0 49.2173) rotate(-40)"/>
</clipPath>
</defs>
</svg>
