<svg width="24" height="35" viewBox="0 0 24 35" fill="none" xmlns="http://www.w3.org/2000/svg">
<path d="M24 14.8077V17.5C24 20.599 22.9757 23.2948 20.9271 25.5874C18.8785 27.8801 16.3472 29.1947 13.3333 29.5313V32.3077H18.6667C19.0278 32.3077 19.3403 32.4409 19.6042 32.7073C19.8681 32.9738 20 33.2893 20 33.6538C20 34.0184 19.8681 34.3339 19.6042 34.6004C19.3403 34.8668 19.0278 35 18.6667 35H5.33333C4.97222 35 4.65972 34.8668 4.39583 34.6004C4.13194 34.3339 4 34.0184 4 33.6538C4 33.2893 4.13194 32.9738 4.39583 32.7073C4.65972 32.4409 4.97222 32.3077 5.33333 32.3077H10.6667V29.5313C7.65278 29.1947 5.12153 27.8801 3.07292 25.5874C1.02431 23.2948 0 20.599 0 17.5V14.8077C0 14.4431 0.131944 14.1276 0.395833 13.8612C0.659722 13.5948 0.972222 13.4615 1.33333 13.4615C1.69444 13.4615 2.00694 13.5948 2.27083 13.8612C2.53472 14.1276 2.66667 14.4431 2.66667 14.8077V17.5C2.66667 20.0942 3.57986 22.3132 5.40625 24.1572C7.23264 26.0011 9.43056 26.9231 12 26.9231C14.5694 26.9231 16.7674 26.0011 18.5938 24.1572C20.4201 22.3132 21.3333 20.0942 21.3333 17.5V14.8077C21.3333 14.4431 21.4653 14.1276 21.7292 13.8612C21.9931 13.5948 22.3056 13.4615 22.6667 13.4615C23.0278 13.4615 23.3403 13.5948 23.6042 13.8612C23.8681 14.1276 24 14.4431 24 14.8077ZM18.6667 6.73077V17.5C18.6667 19.351 18.0139 20.9355 16.7083 22.2536C15.4028 23.5717 13.8333 24.2308 12 24.2308C10.1667 24.2308 8.59722 23.5717 7.29167 22.2536C5.98611 20.9355 5.33333 19.351 5.33333 17.5V6.73077C5.33333 4.87981 5.98611 3.29527 7.29167 1.97716C8.59722 0.659054 10.1667 0 12 0C13.8333 0 15.4028 0.659054 16.7083 1.97716C18.0139 3.29527 18.6667 4.87981 18.6667 6.73077Z" fill="#C4C4C4"/>
</svg>
