<svg width="30" height="30" viewBox="0 0 30 30" fill="none" xmlns="http://www.w3.org/2000/svg">
<path d="M4.62278 4.36928C-1.34785 10.203 -1.34785 19.8585 4.62278 25.6922C10.3512 31.2848 19.5519 31.2848 25.2803 25.6922C31.2529 19.8585 31.2519 10.204 25.2803 4.37131C19.5519 -1.22332 10.3512 -1.22332 4.62278 4.36928ZM15.6687 6.14569L20.9201 19.7321C21.2062 20.5036 20.2262 21.1365 19.644 20.5521L15.152 16.0428C15.0985 15.9892 15.0261 15.9591 14.9505 15.9591C14.875 15.9591 14.8025 15.9892 14.7491 16.0428L10.258 20.5511C9.67788 21.1334 8.70342 20.5071 8.98694 19.7372L14.2344 6.14569C14.2884 5.99842 14.3861 5.87132 14.5144 5.78154C14.6426 5.69176 14.7952 5.64363 14.9515 5.64363C15.1079 5.64363 15.2605 5.69176 15.3887 5.78154C15.5169 5.87132 15.6146 5.99842 15.6687 6.14569V6.14569Z" fill="black"/>
</svg>
