<svg width="30" height="30" viewBox="0 0 30 30" fill="none" xmlns="http://www.w3.org/2000/svg">
<path d="M0.3992 25.9369L6.11442 20.0957C6.37238 19.832 6.72206 19.6856 7.08893 19.6856H8.02331C6.44117 17.6174 5.50105 15.0161 5.50105 12.1863C5.50105 5.45455 10.8379 0 17.4245 0C24.011 0 29.3479 5.45455 29.3479 12.1863C29.3479 18.9181 24.011 24.3726 17.4245 24.3726C14.6557 24.3726 12.1105 23.4118 10.087 21.7947V22.7497C10.087 23.1247 9.94367 23.4821 9.68571 23.7457L3.97049 29.587C3.43165 30.1377 2.56032 30.1377 2.0272 29.587L0.404932 27.9289C-0.133915 27.3782 -0.133915 26.4876 0.3992 25.9369ZM17.4245 19.6856C21.4773 19.6856 24.762 16.3343 24.762 12.1863C24.762 8.04414 21.483 4.68704 17.4245 4.68704C13.3717 4.68704 10.087 8.03828 10.087 12.1863C10.087 16.3285 13.3659 19.6856 17.4245 19.6856Z" fill="#BDBDBD"/>
<circle cx="17.2827" cy="12.0654" r="7.5" fill="white"/>
</svg>
