<svg width="47" height="47" viewBox="0 0 47 47" fill="none" xmlns="http://www.w3.org/2000/svg">
<path d="M23.124 0C10.3734 0 0 8.34815 0 18.6083C0 25.3724 4.38893 31.4387 11.562 34.737V46.5208L23.9102 37.205C36.2977 36.8724 46.248 28.6568 46.248 18.6083C46.248 8.34815 35.8746 0 23.124 0ZM23.124 32.5645H22.354L16.1868 37.2166V31.5946L14.7045 31.02C8.48651 28.6126 4.6248 23.8558 4.6248 18.6083C4.6248 10.9114 12.924 4.65208 23.124 4.65208C33.324 4.65208 41.6232 10.9114 41.6232 18.6083C41.6232 26.3052 33.324 32.5645 23.124 32.5645Z" fill="black"/>
</svg>
