<svg width="77" height="37" viewBox="0 0 77 37" fill="none" xmlns="http://www.w3.org/2000/svg">
<rect x="2" y="2" width="73" height="30" rx="15" fill="white" stroke="#F1C232" stroke-width="4"/>
<path d="M30.567 18.952C30.567 20.136 30.327 21.208 29.847 22.168C29.367 23.112 28.631 23.864 27.639 24.424C26.663 24.968 25.415 25.24 23.895 25.24C21.767 25.24 20.143 24.664 19.023 23.512C17.919 22.344 17.367 20.808 17.367 18.904V7.864H19.527V18.976C19.527 20.368 19.895 21.448 20.631 22.216C21.383 22.984 22.511 23.368 24.015 23.368C25.567 23.368 26.687 22.96 27.375 22.144C28.079 21.312 28.431 20.248 28.431 18.952V7.864H30.567V18.952ZM43.1777 21.448C43.1777 22.696 42.7137 23.64 41.7857 24.28C40.8577 24.92 39.6097 25.24 38.0417 25.24C37.1457 25.24 36.3697 25.168 35.7137 25.024C35.0737 24.88 34.5057 24.68 34.0097 24.424V22.504C34.5217 22.76 35.1377 23 35.8577 23.224C36.5937 23.432 37.3377 23.536 38.0897 23.536C39.1617 23.536 39.9377 23.368 40.4177 23.032C40.8977 22.68 41.1377 22.216 41.1377 21.64C41.1377 21.32 41.0497 21.032 40.8737 20.776C40.6977 20.52 40.3777 20.264 39.9137 20.008C39.4657 19.752 38.8177 19.464 37.9697 19.144C37.1377 18.824 36.4257 18.504 35.8337 18.184C35.2417 17.864 34.7857 17.48 34.4657 17.032C34.1457 16.584 33.9857 16.008 33.9857 15.304C33.9857 14.216 34.4257 13.376 35.3057 12.784C36.2017 12.192 37.3697 11.896 38.8097 11.896C39.5937 11.896 40.3217 11.976 40.9937 12.136C41.6817 12.28 42.3217 12.488 42.9137 12.76L42.1937 14.44C41.6497 14.216 41.0817 14.024 40.4897 13.864C39.8977 13.704 39.2897 13.624 38.6657 13.624C37.8017 13.624 37.1377 13.768 36.6737 14.056C36.2257 14.328 36.0017 14.704 36.0017 15.184C36.0017 15.536 36.1057 15.84 36.3137 16.096C36.5217 16.336 36.8657 16.576 37.3457 16.816C37.8417 17.04 38.4977 17.312 39.3137 17.632C40.1297 17.936 40.8257 18.248 41.4017 18.568C41.9777 18.888 42.4177 19.28 42.7217 19.744C43.0257 20.192 43.1777 20.76 43.1777 21.448ZM51.2541 11.896C52.3581 11.896 53.3021 12.136 54.0861 12.616C54.8861 13.096 55.4941 13.776 55.9101 14.656C56.3421 15.52 56.5581 16.536 56.5581 17.704V18.976H47.7501C47.7821 20.432 48.1501 21.544 48.8541 22.312C49.5741 23.064 50.5741 23.44 51.8541 23.44C52.6701 23.44 53.3901 23.368 54.0141 23.224C54.6541 23.064 55.3101 22.84 55.9821 22.552V24.4C55.3261 24.688 54.6781 24.896 54.0381 25.024C53.3981 25.168 52.6381 25.24 51.7581 25.24C50.5421 25.24 49.4621 24.992 48.5181 24.496C47.5901 24 46.8621 23.264 46.3341 22.288C45.8221 21.296 45.5661 20.088 45.5661 18.664C45.5661 17.256 45.7981 16.048 46.2621 15.04C46.7421 14.032 47.4061 13.256 48.2541 12.712C49.1181 12.168 50.1181 11.896 51.2541 11.896ZM51.2301 13.624C50.2221 13.624 49.4221 13.952 48.8301 14.608C48.2541 15.248 47.9101 16.144 47.7981 17.296H54.3501C54.3341 16.208 54.0781 15.328 53.5821 14.656C53.0861 13.968 52.3021 13.624 51.2301 13.624Z" fill="black"/>
</svg>
