<svg width="72" height="73" viewBox="0 0 72 73" fill="none" xmlns="http://www.w3.org/2000/svg">
<ellipse cx="35.9306" cy="36.7764" rx="35.2666" ry="35.8066" fill="black"/>
<g clip-path="url(#clip0)">
<path d="M46.3965 37.6399C45.854 37.3705 43.2116 36.1055 42.7177 35.925C42.2239 35.7524 41.8653 35.6622 41.5054 36.1944C41.1536 36.7134 40.1172 37.9014 39.8006 38.2479C39.484 38.5943 39.1729 38.6209 38.6384 38.3859C38.0959 38.1165 36.3627 37.563 34.3048 35.7524C32.6974 34.3494 31.6272 32.6212 31.3092 32.0889C30.9926 31.5633 31.274 31.266 31.5419 31.0031C31.7882 30.7616 32.0845 30.3952 32.3591 30.0766C32.6203 29.7581 32.7042 29.5444 32.8949 29.1993C33.0708 28.8263 32.9802 28.5356 32.8462 28.2728C32.7123 28.01 31.6339 25.4043 31.1834 24.3664C30.7531 23.3363 30.3026 23.4677 29.9711 23.4677C29.6613 23.4399 29.3014 23.4399 28.9428 23.4399C28.5843 23.4399 27.9984 23.5713 27.5046 24.0757C27.0107 24.6079 25.6158 25.8795 25.6158 28.452C25.6158 31.031 27.5465 33.5265 27.8144 33.8994C28.0891 34.2446 31.6123 39.554 37.0175 41.8357C38.3069 42.368 39.3082 42.6866 40.0902 42.9494C41.3796 43.3502 42.5567 43.2945 43.4862 43.1631C44.5145 42.9972 46.6712 41.8835 47.1231 40.6398C47.5817 39.3881 47.5817 38.3514 47.4478 38.1165C47.3139 37.8749 46.9621 37.7435 46.4195 37.5085L46.3965 37.6399ZM36.594 50.6786H36.5656C33.3658 50.6786 30.2025 49.8277 27.4396 48.2376L26.7916 47.8579L20.0266 49.5862L21.845 43.1286L21.408 42.4649C19.6213 39.6779 18.6734 36.4525 18.6736 33.1601C18.6736 23.5235 26.7144 15.6629 36.6076 15.6629C41.3999 15.6629 45.8959 17.4946 49.2784 20.813C50.947 22.4305 52.2706 24.3578 53.1719 26.4825C54.0732 28.6072 54.5342 30.8867 54.528 33.188C54.5145 42.818 46.4804 50.6786 36.6008 50.6786H36.594ZM51.8505 18.2897C47.7346 14.3899 42.3226 12.1852 36.5656 12.1852C24.6917 12.1852 15.0232 21.6293 15.0164 33.2358C15.0164 36.9417 16.0027 40.5575 17.8915 43.7577L14.8337 54.6607L26.2639 51.7365C29.4303 53.4113 32.9697 54.2923 36.567 54.3009H36.5737C48.4544 54.3009 58.123 44.8568 58.1297 33.2424C58.1297 27.6224 55.8959 22.3328 51.8234 18.3574L51.8505 18.2897Z" fill="white"/>
</g>
<defs>
<clipPath id="clip0">
<rect width="43.296" height="42.4755" fill="white" transform="translate(14.8337 12.1852)"/>
</clipPath>
</defs>
</svg>
